<svg width="81" height="60" viewBox="0 0 81 60" fill="none" xmlns="http://www.w3.org/2000/svg">
<path d="M22.3376 0.408187C28.514 0.408187 33.9113 1.63233 38.5297 4.08061C43.148 6.52889 46.7091 9.97874 49.2131 14.4302C51.7726 18.8259 53.0524 23.9172 53.0524 29.7041C53.0524 35.4353 51.7726 40.5266 49.2131 44.978C46.7091 49.4294 43.1202 52.8793 38.4462 55.3276C33.8279 57.7759 28.4583 59 22.3376 59H0.38656V0.408187H22.3376ZM21.4195 46.6473C26.8169 46.6473 31.0179 45.1728 34.0226 42.2237C37.0273 39.2746 38.5297 35.1014 38.5297 29.7041C38.5297 24.3067 37.0273 20.1057 34.0226 17.101C31.0179 14.0963 26.8169 12.5939 21.4195 12.5939H14.6589V46.6473H21.4195ZM72.2961 59.6677C69.7922 59.6677 67.7334 58.9444 66.1198 57.4976C64.5618 55.9953 63.7828 54.1591 63.7828 51.989C63.7828 49.7633 64.5618 47.8993 66.1198 46.3969C67.7334 44.8946 69.7922 44.1434 72.2961 44.1434C74.7444 44.1434 76.7475 44.8946 78.3055 46.3969C79.9192 47.8993 80.726 49.7633 80.726 51.989C80.726 54.1591 79.9192 55.9953 78.3055 57.4976C76.7475 58.9444 74.7444 59.6677 72.2961 59.6677Z" fill="white"/>
</svg>
